<svg width="93" height="25" viewBox="0 0 93 25" fill="none" xmlns="http://www.w3.org/2000/svg">
<g clip-path="url(#clip0_0_12)">
<path d="M0 22.0041L2.78926 16.4256C4.71763 17.9752 6.81818 19.0083 8.50551 19.0083C9.71074 19.0083 10.1584 18.3884 10.1584 17.6997V17.6653C10.1584 16.8388 9.43526 16.3912 7.64463 15.5992C3.5124 13.7741 0.929752 11.8802 0.929752 7.8168V7.64463C0.929752 3.06474 4.2011 0 9.15978 0C11.6736 0 14.1873 0.550964 16.9421 2.58264L13.9807 7.92011C12.8099 7.09366 11.0193 5.99174 9.22865 5.99174C8.23003 5.99174 7.7135 6.5427 7.7135 7.19697V7.26584C7.7135 8.05785 8.50551 8.53994 10.6749 9.53857C14.2218 11.1915 16.9421 13.1887 16.9421 17.1143V17.2865C16.9421 21.9353 13.5675 25 8.78099 25C5.61295 25 2.78926 24.1736 0 22.0041Z" fill="white"/>
<path d="M22.9954 0.378784H30.5711L36.8728 24.5523H29.9513L29.1937 20.8678H24.235L23.4775 24.5523H16.6937L22.9954 0.378784ZM28.0918 15.6336L26.7144 8.84986L25.337 15.6336H28.0918Z" fill="white"/>
<path d="M37.65 0.447632H44.1239L49.0137 10.1584V0.447632H55.5219V24.5523H49.358L44.1583 14.2906V24.5523H37.65V0.447632Z" fill="white"/>
<path d="M57.7258 0.447632H64.5096C71.8443 0.447632 75.5633 4.75204 75.5633 11.9146V12.9821C75.5633 20.179 71.8787 24.5523 64.4407 24.5523H57.7258V0.447632ZM64.4407 6.50824V18.4917H64.7506C67.0922 18.4917 68.7107 17.1143 68.7107 12.9476V12.0523C68.7107 7.78234 67.0922 6.50824 64.7506 6.50824H64.4407Z" fill="white"/>
<path d="M79.5873 16.0812L73.5267 0.447632H80.6203L83.0308 8.40218L85.4068 0.447632H92.3628L86.3022 16.0468V24.5523H79.5873V16.0812Z" fill="white"/>
</g>
<defs>
<clipPath id="clip0_0_12">
<rect width="92.3628" height="25" fill="white"/>
</clipPath>
</defs>
</svg>
