<svg width="85" height="36" viewBox="0 0 85 36" fill="none" xmlns="http://www.w3.org/2000/svg">
<path d="M12.008 35.48C9.56 35.48 8.264 33.8 7.256 31.928V35H0.248V0.919998H7.256V12.104C8.36 10.232 9.56 8.552 12.008 8.552C15.128 8.552 17.768 11.144 17.768 20.744V23.288C17.768 32.744 15.128 35.48 12.008 35.48ZM9.032 29.096C10.184 29.096 10.76 27.176 10.76 23.336V20.696C10.76 16.712 10.232 14.936 9.032 14.936C7.736 14.936 7.208 16.712 7.208 20.696V23.336C7.208 27.176 7.832 29.096 9.032 29.096ZM29.1024 35.576C23.5344 35.576 19.5024 31.208 19.5024 22.808V21.32C19.5024 13.016 23.2464 8.504 28.2384 8.504C33.2304 8.504 36.3984 12.968 36.3984 21.56V25.016H26.4144C26.7504 28.088 28.1424 29.192 30.2064 29.192C31.9824 29.192 33.6624 28.472 35.3424 27.32L35.7744 33.56C33.8544 34.76 31.7424 35.576 29.1024 35.576ZM26.3184 20.216H29.9184C29.9184 16.04 29.3424 14.552 28.1904 14.552C27.0864 14.552 26.4624 15.8 26.3184 20.216ZM42.6796 35.48C39.6556 35.48 37.4956 32.744 37.4956 27.752V26.936C37.4956 21.128 40.0396 18.728 43.4956 18.728C44.8876 18.728 45.9436 19.064 47.0476 19.688V18.68C47.0476 16.28 45.8956 15.08 43.5916 15.08C41.9116 15.08 40.1356 15.752 38.8396 16.376V9.848C40.8076 9.032 42.8716 8.648 45.1276 8.648C47.9596 8.648 50.1196 9.368 51.6076 10.856C53.1916 12.44 54.0076 14.84 54.0076 18.056V35H47.0476V32.552C45.9436 34.424 44.5996 35.48 42.6796 35.48ZM45.4636 30.2C46.2796 30.2 47.0956 29.48 47.0956 27.944V23.96C46.7116 23.768 46.0876 23.528 45.5596 23.528C44.4556 23.528 43.9276 24.488 43.9276 26.456V27.416C43.9276 29.48 44.5516 30.2 45.4636 30.2ZM62.4155 35.432C59.2475 35.432 56.6555 34.184 56.6555 30.008V14.648H55.2155V9.032H56.6555V2.696H63.6635V9.032H66.5915V14.648H63.6635V27.848C63.6635 28.76 64.0955 29.192 65.0075 29.192C65.4395 29.192 65.9195 29.048 66.5435 28.808V34.424C65.4395 35 63.9035 35.432 62.4155 35.432ZM77.0555 35.576C71.4875 35.576 67.4555 31.208 67.4555 22.808V21.32C67.4555 13.016 71.1995 8.504 76.1915 8.504C81.1835 8.504 84.3515 12.968 84.3515 21.56V25.016H74.3675C74.7035 28.088 76.0955 29.192 78.1595 29.192C79.9355 29.192 81.6155 28.472 83.2955 27.32L83.7275 33.56C81.8075 34.76 79.6955 35.576 77.0555 35.576ZM74.2715 20.216H77.8715C77.8715 16.04 77.2955 14.552 76.1435 14.552C75.0395 14.552 74.4155 15.8 74.2715 20.216Z" fill="white"/>
</svg>
