<svg width="18" height="15" viewBox="0 0 18 15" fill="none" xmlns="http://www.w3.org/2000/svg">
<path d="M0.619505 2.7551H16.7266C17.0688 2.7551 17.3461 2.48101 17.3461 2.14286V0.612245C17.3461 0.274094 17.0688 0 16.7266 0H0.619505C0.277345 0 0 0.274094 0 0.612245V2.14286C0 2.48101 0.277345 2.7551 0.619505 2.7551ZM0.619505 8.87755H16.7266C17.0688 8.87755 17.3461 8.60346 17.3461 8.26531V6.73469C17.3461 6.39654 17.0688 6.12245 16.7266 6.12245H0.619505C0.277345 6.12245 0 6.39654 0 6.73469V8.26531C0 8.60346 0.277345 8.87755 0.619505 8.87755ZM0.619505 15H16.7266C17.0688 15 17.3461 14.7259 17.3461 14.3878V12.8571C17.3461 12.519 17.0688 12.2449 16.7266 12.2449H0.619505C0.277345 12.2449 0 12.519 0 12.8571V14.3878C0 14.7259 0.277345 15 0.619505 15Z" fill="#363636"/>
</svg>
